# xmcd
#
# Track frame offsets:
#	150
#	12475
#	26288
#	38815
#	56558
#	70208
#	83553
#	95505
#	111465
#	127510
#
# Disc length: 1862 seconds
#
# Revision: 0
# Processed by: cddbd v1.5.1PL0 Copyright (c) Steve Scherf et al.
# Submitted via: dBpowerAMP V4.0
#
DISCID=7507440a
DTITLE=Bob Dilley - Mixin' It Up
DYEAR=1994
DGENRE=Country
TTITLE0=Lovin' Hungry Fool
TTITLE1=You Weren't Supposed To Leave Me
TTITLE2=I Just Need Something Cold
TTITLE3=I'll Always Be Here For You
TTITLE4=Breakin' Out
TTITLE5=A Clown Out Of Place
TTITLE6=She's Leaving Me Again
TTITLE7=I've Done More Than Any Man
TTITLE8=Things My Eyes Can't See
TTITLE9=Lookin' For A Few Good Women
EXTD=1994 Latigo Records\nBrazon Latigo Music\nRichardson , Texas , USA
EXTT0=
EXTT1=
EXTT2=
EXTT3=
EXTT4=
EXTT5=
EXTT6=
EXTT7=
EXTT8=
EXTT9=
PLAYORDER=
